<svg width="56" height="50" viewBox="0 0 56 50" fill="none" xmlns="http://www.w3.org/2000/svg">
<path d="M54.4647 39.564L30.4912 1.49999C30.1993 1.04042 29.7956 0.661911 29.3176 0.399658C28.8397 0.137405 28.3029 -7.28414e-05 27.7574 7.62939e-06C27.2075 -0.00108938 26.6665 0.137538 26.1853 0.402809C25.7042 0.66808 25.2988 1.05124 25.0074 1.51611L1.50296 39.5801C0.8445 40.647 0.497202 41.8757 0.500017 43.1284C0.529827 44.9779 1.29428 46.74 2.62564 48.0282C3.957 49.3163 5.74651 50.0252 7.60149 49.9993H48.4309C52.3294 49.9993 55.5 46.9348 55.5 43.1446C55.5 41.8865 55.1441 40.6446 54.4647 39.564ZM7.27796 40.8382L24.7647 13.9514V43.5478H9.1059C7.29413 43.5478 6.48531 42.3543 7.27796 40.8382ZM31.2353 13.9514L48.7221 40.8382C49.5309 42.3543 48.7059 43.5478 46.8941 43.5478H31.2353V13.9514Z" fill="white"/>
</svg>
