<svg width="53" height="50" viewBox="0 0 53 50" fill="none" xmlns="http://www.w3.org/2000/svg">
<path d="M29.0227 1.55309C27.9715 -0.517698 25.0285 -0.517697 23.9773 1.55309L17.9857 13.3569C17.5741 14.1677 16.8019 14.7317 15.9078 14.8747L2.89026 16.9562C0.606546 17.3213 -0.302909 20.1354 1.33117 21.7804L6.85998 27.3461C9.01359 28.3995 11.4711 28.7522 13.8798 28.3038L27.6685 25.7366C28.3063 25.6178 28.6098 26.4953 28.0364 26.8L16.0747 33.1566C13.1779 34.696 11.0867 37.4205 10.3391 40.6262L9.38571 46.7031C9.02543 48.9996 11.4064 50.7387 13.4675 49.6846L25.2158 43.6759C26.0227 43.2632 26.9773 43.2632 27.7842 43.6759L39.5325 49.6846C41.5936 50.7387 43.9746 48.9995 43.6143 46.7031L41.5606 33.6128C41.4196 32.7137 41.7146 31.8011 42.3543 31.157L51.6688 21.7804C53.3029 20.1354 52.3935 17.3213 50.1097 16.9562L37.0922 14.8747C36.1981 14.7317 35.4259 14.1677 35.0143 13.3569L29.0227 1.55309Z" fill="white"/>
</svg>
