<svg width="50" height="50" viewBox="0 0 50 50" fill="none" xmlns="http://www.w3.org/2000/svg">
<path fill-rule="evenodd" clip-rule="evenodd" d="M12.0568 3.45912C9.83847 1.57233 7.62017 0.314467 4.76807 0.314467C2.86667 0.314467 1.91597 0.628932 1.28217 1.88679C0.0145661 4.08805 0.331466 6.28931 1.91597 8.1761C2.86667 9.43396 4.13427 10.3774 5.40187 11.3208C6.35257 12.2642 7.62017 13.522 7.62017 15.0943C7.77862 15.7233 8.01629 16.4308 8.25397 17.1384C8.49164 17.8459 8.72932 18.5535 8.88777 19.1824C10.1554 24.2138 11.1061 29.2453 10.4723 35.2201C10.4723 36.7924 10.7892 38.3648 11.1061 39.9371C11.7399 42.7673 12.6906 45.5975 15.2258 47.7987C15.4185 47.9422 15.6113 48.0929 15.8063 48.2454C16.8935 49.0956 18.0501 50 19.6624 50C23.4652 50 26.3173 48.1132 28.8525 45.283C31.3877 42.1384 32.9722 38.3648 34.2398 34.2767C35.8243 28.9308 36.775 23.5849 37.7257 17.9245C38.0426 16.0377 38.9933 14.4654 40.8947 13.8365C41.5285 13.522 42.083 13.2075 42.6376 12.8931C43.1922 12.5786 43.7468 12.2642 44.3806 11.9497C46.9158 10.6918 48.5003 8.80503 49.1341 5.97484C49.451 5.03145 49.7679 4.08805 49.1341 3.14465C47.8665 1.25786 46.282 0 43.7468 0C41.2116 0 38.9933 0.943397 36.775 1.88679C34.5567 2.83019 32.0215 4.08805 29.8032 5.34591C28.2187 5.97484 26.9511 6.28931 25.3666 5.66038C24.7328 5.34591 24.099 5.34591 23.4652 5.34591C22.0305 5.34591 20.7284 5.60898 19.3873 5.87992C18.6549 6.0279 17.9108 6.17822 17.1272 6.28931C15.8596 6.28931 14.9089 6.28931 13.9582 5.34591L12.0568 3.45912ZM33.6074 10.6917C33.2905 10.6917 33.2905 10.6917 33.2905 10.3773C33.2905 9.74834 32.6568 9.74834 32.34 9.74834C32.0231 9.74834 32.0231 9.43387 32.0231 9.1194C32.0231 8.80494 32.34 8.80494 32.6568 8.80494C32.9737 8.80494 33.6074 8.80494 33.6074 8.17601C33.6074 7.54708 33.2905 7.23261 32.9737 7.23261C32.6568 7.23261 32.34 6.91815 32.6568 6.60368C32.6568 6.28922 32.9737 6.28922 33.2905 6.28922C33.9242 6.28922 34.558 6.28922 35.1917 5.66028C35.5085 5.34582 35.8254 5.66028 36.1422 5.97475C36.3381 6.1691 36.2918 6.24334 36.228 6.34593C36.1885 6.40933 36.1422 6.48357 36.1422 6.60368C36.1422 6.94417 35.8636 7.10033 35.5578 7.27174C35.2987 7.41695 35.0201 7.5731 34.8748 7.86154C34.558 8.49047 34.558 9.1194 34.558 10.0628C34.4731 10.1471 34.4109 10.2313 34.3532 10.3095C34.1956 10.5232 34.0713 10.6917 33.6074 10.6917ZM25.3694 22.0128C25.6863 20.126 26.3201 18.2393 28.2215 16.9814C29.4891 16.038 30.7567 16.3525 31.7074 17.6103C33.2919 19.8116 33.9257 22.3273 32.6581 24.843C32.0243 26.1009 31.0736 26.7298 29.806 26.4154C29.5211 26.4154 29.2362 26.3518 28.9225 26.2819C28.5384 26.1962 28.111 26.1009 27.5877 26.1009C26.3201 25.472 25.3694 24.2141 25.3694 22.0128ZM15.8621 43.396C15.8621 40.2514 17.1297 38.0501 19.6649 37.1067C22.2001 36.1633 25.0522 37.4212 26.3198 39.6224C27.5874 41.8237 26.6367 44.3394 24.4184 46.2262C23.1508 47.1696 21.8831 47.7985 20.2986 47.7985C18.0803 48.113 15.8621 46.8551 15.8621 43.396ZM12.3752 20.7548C12.0583 22.6416 13.009 24.5284 15.2273 24.5284C15.8611 24.8429 16.4949 24.5284 17.1287 23.585C18.7132 22.3271 18.7132 19.497 17.1287 18.2391C15.5442 16.9812 13.3259 17.2957 12.6921 19.1825C12.6921 19.497 12.6128 19.7328 12.5336 19.9687C12.4544 20.2045 12.3752 20.4403 12.3752 20.7548Z" fill="#FEFEFE"/>
</svg>
