<svg width="56" height="50" viewBox="0 0 56 50" fill="none" xmlns="http://www.w3.org/2000/svg">
<path d="M54.4647 10.436L30.4912 48.5C30.1993 48.9596 29.7956 49.3381 29.3176 49.6003C28.8397 49.8626 28.3029 50.0001 27.7574 50C27.2075 50.0011 26.6665 49.8625 26.1853 49.5972C25.7042 49.3319 25.2988 48.9488 25.0074 48.4839L1.50296 10.4199C0.8445 9.35299 0.497202 8.12427 0.500017 6.87156C0.529827 5.0221 1.29428 3.25998 2.62564 1.97185C3.957 0.683722 5.74651 -0.0251857 7.60149 0.000683955H48.4309C52.3294 0.000683955 55.5 3.06516 55.5 6.85543C55.5 8.11347 55.1441 9.35539 54.4647 10.436ZM7.27796 9.16185L24.7647 36.0486V6.45221H9.1059C7.29413 6.45221 6.48531 7.64574 7.27796 9.16185ZM31.2353 36.0486L48.7221 9.16185C49.5309 7.64574 48.7059 6.45221 46.8941 6.45221H31.2353V36.0486Z" fill="white"/>
</svg>
