<svg width="276" height="74" viewBox="0 0 276 74" fill="none" xmlns="http://www.w3.org/2000/svg">
<path d="M23.1621 33.222C22.6941 34.086 21.9021 34.518 20.7861 34.518C19.7061 34.518 18.9861 34.374 18.6261 34.086C18.3021 33.762 18.1401 32.952 18.1401 31.656C18.1401 30.324 18.8421 27.264 20.2461 22.476C21.6501 17.652 22.3521 14.88 22.3521 14.16C22.3521 13.404 22.2081 13.026 21.9201 13.026C21.4881 13.026 20.9481 13.404 20.3001 14.16C19.6521 14.88 19.1121 15.6 18.6801 16.32L18.0321 17.454C15.7281 21.198 13.6221 24.96 11.7141 28.74C9.84207 32.484 8.45607 35.238 7.55607 37.002C6.69207 38.73 5.93607 39.828 5.28807 40.296C4.64007 40.764 3.70407 40.998 2.48007 40.998C1.29207 40.998 0.69807 40.728 0.69807 40.188V40.026C0.69807 39.666 1.63407 37.992 3.50607 35.004C10.4181 24.024 15.6201 15.06 19.1121 8.112C19.9401 6.456 20.3541 4.908 20.3541 3.468V2.82C20.3541 2.172 21.0921 1.65 22.5681 1.254C24.0801 0.857998 25.3221 0.659998 26.2941 0.659998H28.0761C29.5881 0.659998 30.7041 0.947999 31.4241 1.524C31.7481 1.74 31.9101 2.028 31.9101 2.388C31.9101 2.748 31.1901 5.25 29.7501 9.894C28.3461 14.502 27.6441 17.274 27.6441 18.21C27.6441 19.146 27.7881 19.614 28.0761 19.614C28.9761 19.614 30.5601 18.516 32.8281 16.32C35.0961 14.088 37.6881 11.424 40.6041 8.328C42.9801 5.736 45.2481 3.504 47.4081 1.632C47.8761 1.2 48.4341 0.947997 49.0821 0.875998C50.4861 0.659999 51.9801 0.551999 53.5641 0.551999C55.1841 0.551999 55.9941 0.911999 55.9941 1.632C55.9941 1.776 55.9761 1.884 55.9401 1.956C55.9401 2.028 55.2741 3.126 53.9421 5.25C52.6101 7.338 50.9901 9.948 49.0821 13.08C47.1741 16.176 45.2661 19.398 43.3581 22.746C41.4501 26.058 39.8301 29.226 38.4981 32.25C37.1661 35.238 36.5001 37.434 36.5001 38.838C36.1761 39.45 35.6721 39.756 34.9881 39.756C31.4241 39.756 29.6421 39.126 29.6421 37.866C29.6421 34.95 33.2601 27.948 40.4961 16.86C41.4321 15.456 41.9001 14.574 41.9001 14.214C41.9001 13.854 41.6301 13.674 41.0901 13.674C39.7221 13.674 36.8421 16.122 32.4501 21.018C28.0581 25.878 24.9621 29.946 23.1621 33.222ZM43.3323 41.754C42.8283 41.754 42.2703 41.43 41.6583 40.782C41.0463 40.17 40.7403 39.414 40.7403 38.514C40.7403 38.01 41.9103 35.472 44.2503 30.9C46.6263 26.292 47.8503 23.178 47.9223 21.558C47.9223 21.054 48.2463 20.586 48.8943 20.154C50.0463 19.47 51.7563 19.128 54.0243 19.128C54.4563 19.128 54.9063 19.218 55.3743 19.398C55.8783 19.542 56.1303 19.758 56.1303 20.046C56.1303 20.19 56.0763 20.316 55.9683 20.424C54.6003 22.152 52.6023 25.266 49.9743 29.766C47.3463 34.266 45.3663 37.92 44.0343 40.728C43.8543 41.412 43.6203 41.754 43.3323 41.754ZM55.1583 16.104C53.5743 16.104 52.7463 15.474 52.6743 14.214V14.16C52.6743 13.08 53.1963 12.198 54.2403 11.514C55.3203 10.83 56.3823 10.488 57.4263 10.488C59.0103 10.488 59.8383 11.118 59.9103 12.378C59.9103 13.458 59.3883 14.358 58.3443 15.078C57.3003 15.762 56.2383 16.104 55.1583 16.104ZM65.9613 41.322C64.9533 41.322 64.4493 41.088 64.4493 40.62L64.5573 40.296C66.7173 37.056 68.5713 33.942 70.1193 30.954C71.6673 27.93 72.4413 25.968 72.4413 25.068C72.4413 24.78 72.3693 24.564 72.2253 24.42C72.0813 24.24 71.8653 24.132 71.5773 24.096C70.1733 24.096 68.2833 24.996 65.9073 26.796C63.5673 28.596 61.4973 30.45 59.6973 32.358C57.9333 34.266 56.6193 35.832 55.7553 37.056C54.8913 38.244 53.5953 38.838 51.8673 38.838C50.9313 38.838 50.4633 38.604 50.4633 38.136C50.4633 37.2 52.2273 33.906 55.7553 28.254C59.2833 22.566 61.6233 19.506 62.7753 19.074C63.3873 18.714 64.1613 18.534 65.0973 18.534C66.0693 18.534 66.5553 18.732 66.5553 19.128C66.5553 19.488 66.1233 20.298 65.2593 21.558C64.3953 22.818 63.9633 23.628 63.9633 23.988C64.0353 24.276 64.1793 24.42 64.3953 24.42C64.6473 24.42 64.8633 24.348 65.0433 24.204C70.3713 20.064 74.6193 17.994 77.7873 17.994C79.1193 17.994 79.7853 18.768 79.7853 20.316C79.7853 21.324 79.0293 23.502 77.5173 26.85C76.0413 30.198 74.1513 33.456 71.8473 36.624C69.5793 39.756 67.6173 41.322 65.9613 41.322ZM84.0791 42.078C81.9911 42.078 80.4611 41.448 79.4891 40.188C78.5171 38.964 78.0311 37.452 78.0311 35.652C78.0311 33.816 78.4271 31.908 79.2191 29.928C80.0111 27.912 81.0911 25.968 82.4591 24.096C83.8631 22.224 85.6811 20.658 87.9131 19.398C90.1811 18.102 92.6111 17.454 95.2031 17.454C96.3911 17.454 97.2911 17.832 97.9031 18.588C98.5151 19.308 98.8211 20.172 98.8211 21.18C98.8211 23.268 98.0831 25.212 96.6071 27.012C95.1311 28.812 93.4931 30.18 91.6931 31.116C89.8931 32.052 88.2911 32.592 86.8871 32.736C85.5191 32.844 84.6011 33.096 84.1331 33.492C83.6651 33.888 83.4311 34.68 83.4311 35.868C83.4311 37.056 83.7011 37.956 84.2411 38.568C84.7811 39.18 85.3211 39.594 85.8611 39.81C86.4011 40.026 86.6711 40.242 86.6711 40.458C86.6711 40.962 86.4011 41.358 85.8611 41.646C85.3211 41.934 84.7271 42.078 84.0791 42.078ZM93.5831 22.53C93.5831 21.414 93.0791 20.856 92.0711 20.856C90.6311 20.856 89.0291 21.864 87.2651 23.88C85.5371 25.896 84.6731 27.714 84.6731 29.334C84.6731 29.73 84.9791 29.928 85.5911 29.928C87.0671 29.928 88.7591 29.172 90.6671 27.66C92.6111 26.148 93.5831 24.438 93.5831 22.53ZM117.31 40.242C115.402 40.242 114.178 40.17 113.638 40.026C113.098 39.918 112.63 39.81 112.234 39.702C111.874 39.63 111.64 39.576 111.532 39.54C111.424 39.504 111.262 39.486 111.046 39.486C110.614 39.486 110.218 39.594 109.858 39.81C108.598 40.854 106.942 41.376 104.89 41.376C103.81 41.376 103.27 41.124 103.27 40.62C103.27 40.152 104.512 37.758 106.996 33.438C109.516 29.118 112.288 24.312 115.312 19.02C118.372 13.728 120.334 10.092 121.198 8.112C122.098 6.132 122.548 4.422 122.548 2.982V2.55C122.548 1.506 125.554 0.983997 131.566 0.983997C140.494 0.983997 144.958 4.026 144.958 10.11C144.958 14.502 143.464 19.344 140.476 24.636C138.928 27.408 137.11 29.946 135.022 32.25C132.934 34.554 130.324 36.462 127.192 37.974C124.096 39.486 120.802 40.242 117.31 40.242ZM135.076 21.774C136.408 19.182 137.416 16.77 138.1 14.538C138.82 12.27 139.18 10.38 139.18 8.868C139.18 7.32 138.73 6.15 137.83 5.358C136.966 4.566 135.49 4.17 133.402 4.17C131.962 4.17 130.81 4.674 129.946 5.682C127.678 8.526 124.402 13.782 120.118 21.45C115.834 29.082 113.692 33.546 113.692 34.842C113.692 36.282 115.222 37.002 118.282 37.002C120.442 37.002 122.62 36.246 124.816 34.734C127.012 33.222 128.938 31.332 130.594 29.064C132.25 26.76 133.744 24.33 135.076 21.774ZM156.442 32.142C155.758 32.142 155.236 31.8 154.876 31.116C154.516 30.396 154.336 29.712 154.336 29.064C154.336 28.38 154.552 27.606 154.984 26.742C154.984 26.274 154.804 26.04 154.444 26.04C153.04 26.04 151.438 26.886 149.638 28.578C147.838 30.234 146.326 31.962 145.102 33.762C143.878 35.526 142.762 37.308 141.754 39.108C141.142 40.188 139.882 40.728 137.974 40.728C137.002 40.728 136.516 40.512 136.516 40.08C136.516 39.108 138.28 35.49 141.808 29.226C145.372 22.926 147.73 19.56 148.882 19.128C149.674 18.732 150.556 18.534 151.528 18.534C152.536 18.534 153.04 18.75 153.04 19.182C153.04 19.578 152.626 20.37 151.798 21.558C150.97 22.746 150.556 23.502 150.556 23.826C150.556 24.15 150.682 24.312 150.934 24.312C151.078 24.312 151.474 24.096 152.122 23.664C153.706 22.476 155.65 21.252 157.954 19.992L158.44 19.344C159.304 18.264 160.546 17.724 162.166 17.724C163.822 17.724 164.65 18.048 164.65 18.696C164.578 18.876 164.398 19.164 164.11 19.56C161.266 23.448 158.872 27.516 156.928 31.764C156.784 32.016 156.622 32.142 156.442 32.142ZM171.069 37.11L171.177 35.976C171.177 35.688 171.069 35.544 170.853 35.544C170.529 35.544 169.863 36.012 168.855 36.948C167.883 37.884 166.641 38.82 165.129 39.756C163.653 40.728 162.159 41.214 160.647 41.214C159.171 41.214 158.433 40.116 158.433 37.92C158.433 35.184 159.621 32.034 161.997 28.47C163.221 26.67 164.625 25.014 166.209 23.502C167.829 21.954 169.791 20.694 172.095 19.722C174.399 18.714 176.811 18.21 179.331 18.21C180.663 18.21 181.797 18.57 182.733 19.29C183.669 19.974 184.137 20.838 184.137 21.882C184.137 22.89 183.831 23.394 183.219 23.394C182.895 23.394 182.463 23.196 181.923 22.8C180.915 22.116 179.331 21.774 177.171 21.774C174.327 21.774 171.627 23.07 169.071 25.662C166.551 28.218 165.291 30.756 165.291 33.276C165.291 33.6 165.381 33.906 165.561 34.194C165.777 34.482 166.065 34.626 166.425 34.626C167.505 34.626 168.891 33.888 170.583 32.412C172.275 30.9 173.931 28.74 175.551 25.932C175.659 25.608 176.055 25.302 176.739 25.014C177.423 24.726 178.233 24.582 179.169 24.582C180.501 24.69 181.167 24.978 181.167 25.446C181.167 25.482 181.023 25.716 180.735 26.148C180.483 26.544 180.015 27.282 179.331 28.362C178.647 29.442 177.675 31.224 176.415 33.708C175.191 36.156 174.471 38.1 174.255 39.54C174.219 39.972 174.039 40.188 173.715 40.188C171.951 40.188 171.069 39.162 171.069 37.11ZM173.628 66.162C175.176 66.162 177.606 63.66 180.918 58.656C184.266 53.688 187.236 48.72 189.828 43.752C192.42 38.784 193.716 36.048 193.716 35.544C193.716 35.004 193.572 34.734 193.284 34.734C192.996 34.734 192.51 35.022 191.826 35.598C191.142 36.138 190.404 36.75 189.612 37.434C188.856 38.118 187.866 38.73 186.642 39.27C185.454 39.846 184.266 40.134 183.078 40.134C181.602 40.134 180.864 39.036 180.864 36.84C180.864 35.076 181.35 33.096 182.322 30.9C183.294 28.668 184.626 26.526 186.318 24.474C188.01 22.386 190.224 20.64 192.96 19.236C195.696 17.832 198.63 17.13 201.762 17.13C202.554 17.13 203.418 17.274 204.354 17.562C206.226 18.138 207.162 19.182 207.162 20.694C207.162 21.774 206.856 22.314 206.244 22.314C206.064 22.314 205.758 22.188 205.326 21.936C204.03 21.072 202.032 20.64 199.332 20.64C196.632 20.64 194.004 21.99 191.448 24.69C188.928 27.354 187.668 29.964 187.668 32.52C187.668 33.42 188.046 33.87 188.802 33.87C189.954 33.87 191.538 33.06 193.554 31.44C195.606 29.784 197.64 27.354 199.656 24.15C199.764 23.646 200.592 23.394 202.14 23.394C203.688 23.394 204.462 23.664 204.462 24.204C204.462 24.6 203.202 27.192 200.682 31.98C198.198 36.732 196.092 40.638 194.364 43.698C192.636 46.794 190.548 50.214 188.1 53.958C185.688 57.702 183.402 60.924 181.242 63.624C179.082 66.324 176.832 68.592 174.492 70.428C172.152 72.3 170.064 73.236 168.228 73.236C166.716 73.236 165.96 71.976 165.96 69.456C165.96 66.936 166.698 64.128 168.174 61.032C169.65 57.972 171.432 55.146 173.52 52.554C175.572 49.998 177.768 47.82 180.108 46.02C182.448 44.22 184.41 43.32 185.994 43.32H186.156C186.588 43.32 186.804 43.446 186.804 43.698C186.804 43.95 186.588 44.184 186.156 44.4C184.788 45.084 183.042 46.596 180.918 48.936C178.83 51.312 176.94 54.03 175.248 57.09C173.52 60.15 172.656 62.724 172.656 64.812V64.866C172.656 65.73 172.98 66.162 173.628 66.162ZM206.721 39.702C205.893 39.306 205.209 38.604 204.669 37.596C204.165 36.588 203.913 35.346 203.913 33.87C203.913 31.566 204.651 29.154 206.127 26.634C207.639 24.114 209.745 21.954 212.445 20.154C215.181 18.354 218.061 17.454 221.085 17.454C222.489 17.454 223.659 17.832 224.595 18.588C225.531 19.344 225.999 20.1 225.999 20.856C225.999 21.576 225.891 22.152 225.675 22.584C225.459 23.016 225.351 23.304 225.351 23.448C225.351 23.88 225.693 24.096 226.377 24.096C227.061 24.096 227.583 24.006 227.943 23.826C228.303 23.646 228.519 23.556 228.591 23.556C228.879 23.556 229.023 23.934 229.023 24.69C229.023 25.41 228.663 26.274 227.943 27.282C227.223 28.254 226.341 28.974 225.297 29.442C225.153 29.73 224.955 30.144 224.703 30.684C224.451 31.188 223.857 32.088 222.921 33.384C221.985 34.644 220.977 35.778 219.897 36.786C218.853 37.758 217.449 38.64 215.685 39.432C213.957 40.26 212.373 40.674 210.933 40.674C209.493 40.674 208.089 40.35 206.721 39.702ZM218.763 30.414C218.763 30.126 218.601 29.982 218.277 29.982C217.809 29.982 217.269 30.09 216.657 30.306C216.081 30.522 215.757 30.63 215.685 30.63C215.469 30.63 215.361 30.468 215.361 30.144C215.361 28.74 215.865 27.534 216.873 26.526C217.269 26.094 217.845 25.734 218.601 25.446C219.357 25.122 219.933 24.762 220.329 24.366C220.761 23.934 220.977 23.214 220.977 22.206C220.977 20.982 220.329 20.37 219.033 20.37C216.729 20.37 214.533 22.008 212.445 25.284C210.357 28.524 209.313 31.422 209.313 33.978C209.313 34.842 209.601 35.58 210.177 36.192C210.789 36.804 211.509 37.11 212.337 37.11C214.209 37.11 215.739 36.336 216.927 34.788C218.151 33.204 218.763 31.746 218.763 30.414ZM240.459 41.322C239.451 41.322 238.947 41.088 238.947 40.62L239.055 40.296C241.215 37.056 243.069 33.942 244.617 30.954C246.165 27.93 246.939 25.968 246.939 25.068C246.939 24.78 246.867 24.564 246.723 24.42C246.579 24.24 246.363 24.132 246.075 24.096C244.671 24.096 242.781 24.996 240.405 26.796C238.065 28.596 235.995 30.45 234.195 32.358C232.431 34.266 231.117 35.832 230.253 37.056C229.389 38.244 228.093 38.838 226.365 38.838C225.429 38.838 224.961 38.604 224.961 38.136C224.961 37.2 226.725 33.906 230.253 28.254C233.781 22.566 236.121 19.506 237.273 19.074C237.885 18.714 238.659 18.534 239.595 18.534C240.567 18.534 241.053 18.732 241.053 19.128C241.053 19.488 240.621 20.298 239.757 21.558C238.893 22.818 238.461 23.628 238.461 23.988C238.533 24.276 238.677 24.42 238.893 24.42C239.145 24.42 239.361 24.348 239.541 24.204C244.869 20.064 249.117 17.994 252.285 17.994C253.617 17.994 254.283 18.768 254.283 20.316C254.283 21.324 253.527 23.502 252.015 26.85C250.539 30.198 248.649 33.456 246.345 36.624C244.077 39.756 242.115 41.322 240.459 41.322ZM247.26 41.538C247.26 41.25 247.458 41.07 247.854 40.998C250.374 40.998 253.056 40.188 255.9 38.568C258.78 36.948 260.22 35.256 260.22 33.492C260.22 32.196 259.356 30.954 257.628 29.766C255.9 28.542 255.036 27.264 255.036 25.932C255.036 23.952 256.296 22.242 258.816 20.802C261.336 19.326 264.198 18.588 267.402 18.588C267.978 18.588 268.356 18.606 268.536 18.642C268.716 18.642 268.878 18.534 269.022 18.318C269.202 18.066 269.4 17.796 269.616 17.508C269.832 17.22 270.228 16.968 270.804 16.752C271.38 16.5 272.064 16.374 272.856 16.374C274.692 16.374 275.61 16.644 275.61 17.184C275.61 17.292 275.592 17.382 275.556 17.454C274.98 17.958 273.954 19.2 272.478 21.18C271.002 23.16 269.922 25.014 269.238 26.742C269.094 27.066 268.77 27.228 268.266 27.228C267.798 27.228 267.33 26.958 266.862 26.418C266.394 25.842 266.16 25.302 266.16 24.798C266.16 24.258 266.25 23.7 266.43 23.124C266.61 22.512 266.7 22.152 266.7 22.044C266.7 21.576 266.412 21.342 265.836 21.342C264.72 21.342 263.55 21.684 262.326 22.368C261.138 23.016 260.544 23.97 260.544 25.23C260.544 26.454 261.444 27.696 263.244 28.956C263.928 29.46 264.54 30.108 265.08 30.9C265.656 31.692 265.944 32.52 265.944 33.384C265.944 35.832 264.342 38.046 261.138 40.026C257.934 42.042 254.46 43.05 250.716 43.05C248.592 43.05 247.44 42.546 247.26 41.538Z" fill="white"/>
</svg>
