<svg width="105" height="19" viewBox="0 0 105 19" fill="none" xmlns="http://www.w3.org/2000/svg">
<g id="logo_nv">
<g id="Group">
<path id="Vector" d="M16.4527 1.94912V7.30781L12.4733 4.29679V1.91259C12.4713 0.858927 13.3629 0.00138467 14.461 0.00138467C14.491 0.00138467 14.5211 0.00138467 14.5531 0.00138467C15.6231 0.0475305 16.4527 0.918533 16.4527 1.94335V1.94912ZM15.2304 8.83254C15.2304 8.83254 5.03539 1.16849 4.46433 0.737795C3.38031 -0.0659113 2.48063 0.00138467 2.48063 0.00138467C0.416778 0.00138467 0.00200374 1.2627 0.00200374 2.81436V5.84844C0.00200374 6.43103 0.280523 6.98286 0.757413 7.34434C2.06185 8.3307 3.98143 7.4424 3.98143 5.84844V5.20817L11.9984 11.236L8.22134 14.1258L3.19396 10.3188C1.90155 9.34014 0 10.2227 0 11.7993C0 12.3723 0.272508 12.9164 0.741383 13.2741L8.22534 19L15.2484 13.6259C16.0079 13.0453 16.4487 12.1647 16.4487 11.234C16.4487 10.3034 15.9978 9.40552 15.2264 8.82677L15.2304 8.83254Z" fill="#A3A3A3"/>
<g id="Group_2">
<path id="Vector_2" d="M33.8218 13.6721C33.6054 13.6721 33.3809 13.6644 33.1445 13.649C32.9081 13.6336 32.6756 13.5894 32.4492 13.5182C32.2228 13.4452 32.0024 13.3394 31.788 13.201C31.5716 13.0606 31.3792 12.8722 31.2069 12.6357C30.9264 12.2435 30.754 11.7839 30.6899 11.2571C30.6258 10.7303 30.5938 10.1938 30.5938 9.64583C30.5938 9.26321 30.6018 8.90558 30.6178 8.5691C30.6338 8.23262 30.6759 7.92306 30.746 7.64041C30.8162 7.35585 30.9184 7.09628 31.0526 6.85786C31.1869 6.61944 31.3732 6.40409 31.6096 6.20797C31.8461 6.01185 32.1066 5.86188 32.3931 5.75805C32.6776 5.65422 32.9662 5.57923 33.2567 5.53309C33.5473 5.48694 33.8278 5.4581 34.0963 5.44849C34.3648 5.43887 34.6012 5.43311 34.8076 5.43311C35.3126 5.43311 35.8115 5.46195 36.3004 5.51771C36.7893 5.57539 37.2341 5.72152 37.6329 5.95994C37.8813 6.11568 38.0817 6.29065 38.238 6.48677C38.3943 6.68289 38.5185 6.89823 38.6087 7.12896C38.7009 7.36162 38.763 7.60388 38.795 7.85768C38.8271 8.11149 38.8431 8.36721 38.8431 8.62486C38.8431 8.83251 38.8211 9.04594 38.779 9.26705C38.7349 9.49009 38.6227 9.68813 38.4404 9.8631C38.3122 9.98616 38.1679 10.0708 38.0116 10.1111C37.8553 10.1515 37.691 10.1727 37.5187 10.1727H32.5454C32.5454 10.3476 32.5274 10.3707 32.5454 10.5976C32.5674 10.8245 32.5935 11.0014 32.6255 11.1244C32.6897 11.3417 32.7818 11.5147 32.9001 11.6436C33.0183 11.7724 33.1886 11.8435 33.3489 11.9089C33.5112 11.9762 33.6795 12.0204 33.8578 12.0416C34.0362 12.0627 34.2105 12.0723 34.3828 12.0723H38.5646V13.6759H33.8178V13.6721H33.8218ZM36.8895 8.66716C36.9396 8.34414 36.8334 7.81538 36.7192 7.62888C36.607 7.44237 36.4787 7.29817 36.3405 7.19434C36.104 7.01937 35.8415 6.91362 35.557 6.87708C35.2725 6.84055 34.994 6.82325 34.7255 6.82325C34.5972 6.82325 34.457 6.82325 34.3047 6.83094C34.1544 6.83671 33.9981 6.85401 33.8358 6.88478C33.6735 6.91554 33.5152 6.96938 33.3589 7.04821C33.2026 7.12512 33.0604 7.23087 32.9301 7.36546C32.7357 7.57312 32.6255 7.79231 32.5995 8.02304C32.5734 8.25569 32.5534 8.39797 32.5434 8.66716H36.8895Z" fill="#A3A3A3"/>
<path id="Vector_3" d="M45.4001 13.672L43.2361 10.6341L41.0881 13.672H38.876L42.1541 9.45734L39.0864 5.45996H41.2183L43.2361 8.28062L45.2539 5.45996H47.3859L44.3342 9.45734L47.6123 13.672H45.4001Z" fill="#A3A3A3"/>
<path id="Vector_4" d="M55.782 13.672H50.969C50.4741 13.672 50.0513 13.6277 49.7007 13.5412C49.35 13.4528 49.0314 13.2913 48.7389 13.0528C48.3842 12.7529 48.1498 12.403 48.0356 11.9992C47.9233 11.5973 47.8652 11.1416 47.8652 10.636V5.45993H49.7548V10.1014C49.7548 10.4629 49.7788 10.7552 49.8269 10.9763C49.875 11.1993 49.9591 11.3877 50.0774 11.5416C50.2497 11.7684 50.4621 11.9127 50.7146 11.9761C50.967 12.0376 51.2656 12.0684 51.6102 12.0684H53.1771C53.4236 12.0684 53.608 12.0126 53.7262 11.8973C53.8123 11.8146 53.8604 11.7319 53.8724 11.6492C53.8825 11.5666 53.8885 11.4839 53.8885 11.4012V5.45801H55.778V13.67H55.782V13.672Z" fill="#A3A3A3"/>
<path id="Vector_5" d="M56.9608 12.0684H61.7738C61.87 12.0684 61.9782 12.0549 62.0964 12.0299C62.2146 12.0049 62.3168 11.9395 62.403 11.8357C62.4892 11.753 62.5372 11.6627 62.5493 11.5646C62.5593 11.4665 62.5513 11.3108 62.5252 11.207C62.4992 11.1031 62.431 11.0051 62.3228 10.9128C62.2908 10.882 62.2467 10.8532 62.1946 10.8282C62.1405 10.8032 62.0563 10.7686 61.9441 10.7282C61.8319 10.6878 61.6837 10.6398 61.4993 10.5898C61.317 10.5379 61.0745 10.4706 60.7719 10.3879L59.1249 9.95335C58.672 9.83991 58.2913 9.70339 57.9787 9.54188C57.6662 9.38229 57.4237 9.1881 57.2514 8.96121C57.0791 8.73433 56.9689 8.49591 56.9208 8.24788C56.8727 7.99984 56.8486 7.77296 56.8486 7.5653C56.8486 7.35765 56.8727 7.13076 56.9208 6.88273C56.9689 6.6347 57.0791 6.39628 57.2514 6.16939C57.3816 6.00404 57.5259 5.87329 57.6882 5.77331C57.8505 5.67525 58.0188 5.60218 58.1972 5.55604C58.3755 5.50989 58.5578 5.48105 58.7462 5.47144C58.9345 5.46182 59.1209 5.45605 59.3032 5.45605H64.1322V7.05962H59.5938C59.4856 7.05962 59.3753 7.06539 59.2631 7.075C59.1509 7.08462 59.0387 7.13269 58.9325 7.21536C58.8143 7.29804 58.7341 7.39226 58.7141 7.49032C58.6921 7.58838 58.6861 7.6922 58.6921 7.80372C58.6981 7.91524 58.8383 8.12867 58.9666 8.23057C59.0307 8.28249 59.1129 8.32863 59.209 8.37093C59.3052 8.41131 59.4054 8.45169 59.5076 8.4863C59.6098 8.52283 59.71 8.55552 59.8062 8.58628C59.9023 8.61704 59.9785 8.63819 60.0326 8.64781L61.874 9.14387C62.391 9.28808 62.8218 9.42459 63.1664 9.55534C63.5111 9.68416 63.7916 9.85721 64.006 10.0745C64.2424 10.3129 64.3907 10.5648 64.4508 10.834C64.5089 11.1031 64.539 11.3512 64.539 11.5781C64.539 11.6819 64.533 11.8088 64.5229 11.9568C64.5129 12.1068 64.4829 12.2645 64.4348 12.4298C64.3867 12.5952 64.3146 12.7548 64.2164 12.9105C64.1202 13.0663 63.9839 13.2047 63.8136 13.3297C63.5972 13.4854 63.3688 13.5796 63.1263 13.6162C62.8839 13.6527 62.6555 13.67 62.4411 13.67H56.9669V12.0664H56.9608V12.0684Z" fill="#A3A3A3"/>
<path id="Vector_6" d="M68.9275 11.5493C68.9495 11.6108 68.9816 11.6819 69.0236 11.7588C69.0657 11.8357 69.1098 11.8742 69.1519 11.8742C69.194 11.8742 69.238 11.8357 69.2821 11.7588C69.3242 11.6819 69.3583 11.6108 69.3783 11.5493L71.7688 5.45993H73.7224L70.4603 13.0375C70.3842 13.2124 70.296 13.3489 70.1938 13.447C70.0916 13.5451 69.9834 13.6181 69.8712 13.6643C69.759 13.7104 69.6388 13.7393 69.5166 13.7489C69.3923 13.7585 69.2721 13.7643 69.1539 13.7643C69.0677 13.7643 68.9655 13.7623 68.8473 13.7566C68.7291 13.7508 68.6069 13.7258 68.4846 13.6797C68.3604 13.6335 68.2402 13.5604 68.122 13.4624C68.0037 13.3643 67.9056 13.222 67.8314 13.0355L64.5693 5.45801H66.523L68.9295 11.5473H68.9275V11.5493Z" fill="#A3A3A3"/>
<path id="Vector_7" d="M83.0713 8.55747C83.0713 8.1037 83.1274 7.66724 83.2416 7.24808C83.3558 6.82892 83.5943 6.47129 83.9609 6.17135C84.1553 6.00599 84.3677 5.87524 84.5981 5.77526C84.8286 5.6772 85.061 5.60414 85.2934 5.55799C85.5239 5.51184 85.7483 5.483 85.9627 5.47339C86.1771 5.46378 86.3674 5.45801 86.5277 5.45801H87.8041V7.12118L86.2492 7.12887C85.5379 7.13272 84.9608 7.68647 84.9608 8.37096V13.672H83.0713V8.55939V8.55747Z" fill="#A3A3A3"/>
<path id="Vector_8" d="M21.6133 5.45996H26.4263C26.9212 5.45996 27.344 5.50418 27.6946 5.59071C28.0453 5.67915 28.3639 5.84066 28.6564 6.07908C29.0111 6.37903 29.2455 6.72897 29.3597 7.13275C29.4719 7.5346 29.5301 7.99029 29.5301 8.49597V13.672H27.6405V9.03049C27.6405 8.66902 27.6165 8.37676 27.5684 8.15565C27.5203 7.93261 27.4361 7.74418 27.3179 7.59036C27.1456 7.36348 26.9332 7.21927 26.6807 7.15582C26.4283 7.09429 26.1297 7.06353 25.7851 7.06353H24.2181C23.9717 7.06353 23.7873 7.11929 23.6691 7.23465C23.583 7.31733 23.5349 7.40001 23.5228 7.48269C23.5128 7.56536 23.5068 7.64804 23.5068 7.73072V13.6739H21.6173V5.45996H21.6133Z" fill="#A3A3A3"/>
<path id="Vector_9" d="M76.9527 13.6721C76.7363 13.6721 76.5119 13.6644 76.2754 13.649C76.039 13.6336 75.8066 13.5894 75.5801 13.5182C75.3537 13.4452 75.1333 13.3394 74.9189 13.201C74.7025 13.0606 74.5101 12.8722 74.3378 12.6357C74.0573 12.2435 73.885 11.7839 73.8209 11.2571C73.7567 10.7303 73.7247 10.1938 73.7247 9.64583C73.7247 9.26321 73.7327 8.90558 73.7487 8.5691C73.7647 8.23262 73.8068 7.92306 73.877 7.64041C73.9471 7.35585 74.0493 7.09628 74.1835 6.85786C74.3178 6.61944 74.5041 6.40409 74.7406 6.20797C74.977 6.01185 75.2375 5.86188 75.524 5.75805C75.8086 5.65422 76.0971 5.57923 76.3876 5.53309C76.6782 5.48694 76.9587 5.4581 77.2272 5.44849C77.4957 5.43887 77.7321 5.43311 77.9385 5.43311C78.4435 5.43311 78.9424 5.46195 79.4313 5.51771C79.9202 5.57539 80.3651 5.72152 80.7638 5.95994C81.0123 6.11568 81.2126 6.29065 81.3689 6.48677C81.5252 6.68289 81.6495 6.89823 81.7396 7.12896C81.8318 7.36162 81.8939 7.60388 81.926 7.85768C81.958 8.11149 81.9741 8.36721 81.9741 8.62486C81.9741 8.83251 81.952 9.04594 81.9099 9.26705C81.8659 9.49009 81.7537 9.68813 81.5713 9.8631C81.4431 9.98616 81.2988 10.0708 81.1425 10.1111C80.9862 10.1515 80.8219 10.1727 80.6496 10.1727H75.6763C75.6763 10.3476 75.6583 10.3707 75.6783 10.5976C75.7004 10.8245 75.7264 11.0014 75.7585 11.1244C75.8226 11.3417 75.9148 11.5147 76.033 11.6436C76.1512 11.7724 76.3215 11.8435 76.4818 11.9089C76.6441 11.9762 76.8124 12.0204 76.9908 12.0416C77.1691 12.0627 77.3434 12.0723 77.5157 12.0723H81.6975V13.6759H76.9507V13.6721H76.9527ZM80.0204 8.66716C80.0705 8.34414 79.9643 7.81538 79.8501 7.62888C79.7379 7.44237 79.6096 7.29817 79.4714 7.19434C79.2349 7.01937 78.9725 6.91362 78.6879 6.87708C78.4034 6.84055 78.1249 6.82325 77.8564 6.82325C77.7281 6.82325 77.5879 6.82325 77.4356 6.83094C77.2853 6.83671 77.129 6.85401 76.9667 6.88478C76.8044 6.91554 76.6461 6.96938 76.4898 7.04821C76.3335 7.12512 76.1913 7.23087 76.061 7.36546C75.8667 7.57312 75.7565 7.79231 75.7304 8.02304C75.7044 8.25569 75.6843 8.39797 75.6743 8.66716H80.0204Z" fill="#A3A3A3"/>
<path id="Vector_10" d="M99.979 13.6721C99.7626 13.6721 99.5382 13.6644 99.3017 13.649C99.0653 13.6336 98.8329 13.5894 98.6064 13.5182C98.38 13.4452 98.1596 13.3394 97.9452 13.201C97.7288 13.0606 97.5364 12.8722 97.3641 12.6357C97.0836 12.2435 96.9113 11.7839 96.8472 11.2571C96.783 10.7303 96.751 10.1938 96.751 9.64583C96.751 9.26321 96.759 8.90558 96.775 8.5691C96.7911 8.23262 96.8331 7.92306 96.9033 7.64041C96.9734 7.35585 97.0756 7.09628 97.2098 6.85786C97.3441 6.61944 97.5304 6.40409 97.7669 6.20797C98.0033 6.01185 98.2638 5.86188 98.5503 5.75805C98.8349 5.65422 99.1234 5.57923 99.4139 5.53309C99.7045 5.48694 99.985 5.4581 100.254 5.44849C100.522 5.43887 100.758 5.43311 100.965 5.43311C101.47 5.43311 101.969 5.46195 102.458 5.51771C102.947 5.57539 103.391 5.72152 103.79 5.95994C104.039 6.11568 104.239 6.29065 104.395 6.48677C104.552 6.68289 104.676 6.89823 104.766 7.12896C104.858 7.36162 104.92 7.60388 104.952 7.85768C104.984 8.11149 105 8.36721 105 8.62486C105 8.83251 104.978 9.04594 104.936 9.26705C104.892 9.49009 104.78 9.68813 104.598 9.8631C104.469 9.98616 104.325 10.0708 104.169 10.1111C104.013 10.1515 103.848 10.1727 103.676 10.1727H98.7026C98.7026 10.3476 98.6846 10.3707 98.7046 10.5976C98.7267 10.8245 98.7527 11.0014 98.7848 11.1244C98.8489 11.3417 98.9411 11.5147 99.0593 11.6436C99.1775 11.7724 99.3478 11.8435 99.5081 11.9089C99.6704 11.9762 99.8387 12.0204 100.017 12.0416C100.195 12.0627 100.37 12.0723 100.542 12.0723H104.724V13.6759H99.977V13.6721H99.979ZM103.047 8.66716C103.097 8.34414 102.991 7.81538 102.876 7.62888C102.764 7.44237 102.636 7.29817 102.498 7.19434C102.261 7.01937 101.999 6.91362 101.714 6.87708C101.43 6.84055 101.151 6.82325 100.883 6.82325C100.754 6.82325 100.614 6.82325 100.462 6.83094C100.312 6.83671 100.155 6.85401 99.993 6.88478C99.8307 6.91554 99.6724 6.96938 99.5161 7.04821C99.3598 7.12512 99.2176 7.23087 99.0873 7.36546C98.893 7.57312 98.7828 7.79231 98.7567 8.02304C98.7307 8.25569 98.7106 8.39797 98.7006 8.66716H103.047Z" fill="#A3A3A3"/>
<path id="Vector_11" d="M88.3368 12.0684H93.1498C93.246 12.0684 93.3542 12.0549 93.4724 12.0299C93.5906 12.0049 93.6928 11.9395 93.779 11.8357C93.8651 11.753 93.9132 11.6627 93.9252 11.5646C93.9353 11.4665 93.9273 11.3108 93.9012 11.207C93.8752 11.1031 93.807 11.0051 93.6988 10.9128C93.6668 10.882 93.6227 10.8532 93.5706 10.8282C93.5165 10.8032 93.4323 10.7686 93.3201 10.7282C93.2079 10.6878 93.0596 10.6398 92.8753 10.5898C92.6929 10.5379 92.4505 10.4706 92.1479 10.3879L90.5009 9.95335C90.048 9.83991 89.6673 9.70339 89.3547 9.54188C89.0421 9.38229 88.7997 9.1881 88.6274 8.96121C88.455 8.73433 88.3448 8.49591 88.2967 8.24788C88.2487 7.99984 88.2246 7.77296 88.2246 7.5653C88.2246 7.35765 88.2487 7.13076 88.2967 6.88273C88.3448 6.6347 88.455 6.39628 88.6274 6.16939C88.7576 6.00404 88.9019 5.87329 89.0642 5.77331C89.2265 5.67525 89.3948 5.60218 89.5731 5.55604C89.7515 5.50989 89.9338 5.48105 90.1221 5.47144C90.3105 5.46182 90.4968 5.45605 90.6792 5.45605H95.5082V7.05962H90.9697C90.8615 7.05962 90.7513 7.06539 90.6391 7.075C90.5269 7.08462 90.4147 7.13269 90.3085 7.21536C90.1903 7.29804 90.1101 7.39226 90.0901 7.49032C90.068 7.58838 90.062 7.6922 90.0681 7.80372C90.0741 7.91524 90.2143 8.12867 90.3426 8.23057C90.4067 8.28249 90.4888 8.32863 90.585 8.37093C90.6812 8.41131 90.7814 8.45169 90.8836 8.4863C90.9858 8.52283 91.0859 8.55552 91.1821 8.58628C91.2783 8.61704 91.3545 8.63819 91.4086 8.64781L93.25 9.14387C93.767 9.28808 94.1978 9.42459 94.5424 9.55534C94.887 9.68416 95.1676 9.85721 95.382 10.0745C95.6184 10.3129 95.7667 10.5648 95.8268 10.834C95.8849 11.1031 95.915 11.3512 95.915 11.5781C95.915 11.6819 95.9089 11.8088 95.8989 11.9568C95.8889 12.1068 95.8589 12.2645 95.8108 12.4298C95.7627 12.5952 95.6905 12.7548 95.5924 12.9105C95.4962 13.0663 95.3599 13.2047 95.1896 13.3297C94.9732 13.4854 94.7448 13.5796 94.5023 13.6162C94.2599 13.6527 94.0314 13.67 93.817 13.67H88.3428V12.0664H88.3368V12.0684Z" fill="#A3A3A3"/>
</g>
</g>
</g>
</svg>
