<svg width="93" height="74" viewBox="0 0 93 74" fill="none" xmlns="http://www.w3.org/2000/svg">
<path id="USDT" d="M46.5 73.5L0.875 28.4909L18.2809 0.5H74.7191L92.125 28.4909L46.5 73.5ZM51.0625 32.4375V26.8712C59.275 27.2819 66.94 28.8788 69.3125 30.9547C66.5522 33.3728 56.6744 35.1294 46.5 35.1294C36.3256 35.1294 26.4478 33.3728 23.6875 30.9547C26.0372 28.8788 33.725 27.3047 41.9375 26.8484V32.4375H51.0625ZM23.6875 30.9319V34.2853C26.0372 36.3613 33.7022 37.9353 41.9375 38.3916V50.6875H51.0625V38.3688C59.275 37.9581 66.9628 36.3613 69.3125 34.2853V27.6012C66.9628 25.5253 59.275 23.9284 51.0625 23.495V18.75H64.75V11.9062H28.25V18.75H41.9375V23.495C33.7022 23.9284 26.0372 25.5253 23.6875 27.6012V30.9319Z" fill="white"/>
</svg>
