<svg width="63" height="50" viewBox="0 0 63 50" fill="none" xmlns="http://www.w3.org/2000/svg">
<path d="M31.5 50L0.5 19.1719L12.3265 0H50.6735L62.5 19.1719L31.5 50ZM34.6 21.875V18.0625C40.18 18.3438 45.388 19.4375 47 20.8594C45.1245 22.5156 38.413 23.7188 31.5 23.7188C24.587 23.7188 17.8755 22.5156 16 20.8594C17.5965 19.4375 22.82 18.3594 28.4 18.0469V21.875H34.6ZM16 20.8438V23.1406C17.5965 24.5625 22.8045 25.6406 28.4 25.9531V34.375H34.6V25.9375C40.18 25.6563 45.4035 24.5625 47 23.1406V18.5625C45.4035 17.1406 40.18 16.0469 34.6 15.75V12.5H43.9V7.8125H19.1V12.5H28.4V15.75C22.8045 16.0469 17.5965 17.1406 16 18.5625V20.8438Z" fill="white"/>
</svg>
