<svg width="105" height="105" viewBox="0 0 105 105" fill="none" xmlns="http://www.w3.org/2000/svg">
<g id="Group">
<path id="Vector" d="M52.1776 104.315L42.1345 94.3107L42.9584 93.4868L52.1776 102.706L61.3968 93.4868L62.2206 94.3107L52.1776 104.315Z" fill="#00A1FF"/>
<path id="Vector_2" d="M21.4695 72.1267L20.665 72.9312L31.3727 83.6388L32.1772 82.8344L21.4695 72.1267Z" fill="#00A1FF"/>
<path id="Vector_3" d="M10.043 62.1814L0 52.1384L10.043 42.1345L10.8277 42.9192L1.60846 52.1384L10.8277 61.3968L10.043 62.1814Z" fill="#00A1FF"/>
<path id="Vector_4" d="M31.3785 20.767L20.6726 31.4766L21.4772 32.2808L32.183 21.5712L31.3785 20.767Z" fill="#00A1FF"/>
<path id="Vector_5" d="M61.3968 10.8277L52.1776 1.5692L42.9584 10.8277L42.1345 10.0038L52.1776 0L62.2206 10.0038L61.3968 10.8277Z" fill="#00A1FF"/>
<path id="Vector_6" d="M72.8677 20.7646L72.0632 21.5691L82.7709 32.2768L83.5754 31.4723L72.8677 20.7646Z" fill="#00A1FF"/>
<path id="Vector_7" d="M94.3098 62.1814L93.5251 61.3968L102.744 52.1384L93.5251 42.9192L94.3098 42.1345L104.353 52.1384L94.3098 62.1814Z" fill="#00A1FF"/>
<path id="Vector_8" d="M82.8171 72.1018L72.1094 82.8096L72.9138 83.614L83.6215 72.9062L82.8171 72.1018Z" fill="#00A1FF"/>
</g>
</svg>
