<svg width="23" height="25" viewBox="0 0 23 25" fill="none" xmlns="http://www.w3.org/2000/svg">
<path id="Union" fill-rule="evenodd" clip-rule="evenodd" d="M11.7071 2C10.708 2 9.76543 2.36475 9.08312 2.99047C8.4037 3.61353 8.0404 4.4391 8.0404 5.27958V7.02288H15.3737V5.27958C15.3737 4.4391 15.0104 3.61353 14.331 2.99047C13.6487 2.36475 12.7061 2 11.7071 2ZM17.3737 7.02288V5.27958C17.3737 3.85004 16.7537 2.49855 15.6828 1.51645C14.6148 0.537012 13.1834 0 11.7071 0C10.2308 0 8.79938 0.537012 7.73136 1.51645C6.66043 2.49855 6.0404 3.85004 6.0404 5.27958V7.02288H2.5809C2.07172 7.02288 1.64384 7.40549 1.58712 7.9115L0.0174417 21.9174C0.0174178 21.9176 0.017386 21.9179 0.0173621 21.9181C-0.0265188 22.3079 0.0130153 22.7025 0.133275 23.0759C0.253596 23.4495 0.451932 23.7931 0.714944 24.0844L0.71632 24.0859C0.980019 24.3767 1.30233 24.6083 1.66186 24.7657C2.02009 24.9226 2.40734 25.0023 2.79834 24.9999H20.2017C20.5927 25.0023 20.9799 24.9226 21.3382 24.7657C21.6977 24.6083 22.02 24.3767 22.2837 24.0859L22.2851 24.0844C22.5481 23.7931 22.7464 23.4495 22.8667 23.0759C22.987 22.7025 23.0265 22.3079 22.9827 21.9181C22.9826 21.9178 22.9826 21.9176 22.9826 21.9174L21.4129 7.9115C21.3562 7.40549 20.9283 7.02288 20.4191 7.02288H17.3737ZM3.47509 9.02288L2.00492 22.1408L2.00484 22.1415C1.99265 22.2496 2.00358 22.359 2.03698 22.4627C2.07028 22.5662 2.12525 22.6617 2.19857 22.7431C2.27232 22.8242 2.36274 22.8893 2.46408 22.9336C2.56576 22.9782 2.67596 23.0008 2.78738 23L2.79496 22.9999L20.2051 22.9999H20.2126V23C20.3241 23.0008 20.4343 22.9782 20.5359 22.9336C20.6373 22.8892 20.7277 22.8242 20.8015 22.7431C20.8748 22.6617 20.9297 22.5661 20.963 22.4627C20.9964 22.359 21.0074 22.2496 20.9952 22.1415L20.9951 22.1408L19.5249 9.02288H3.47509Z" fill="#F8F8F8"/>
</svg>
