<svg width="46" height="45" viewBox="0 0 46 45" fill="none" xmlns="http://www.w3.org/2000/svg">
<g id="vuesax/bold/close-circle">
<g id="close-circle">
<path id="Vector" d="M23 3.75C12.6687 3.75 4.25 12.1687 4.25 22.5C4.25 32.8313 12.6687 41.25 23 41.25C33.3313 41.25 41.75 32.8313 41.75 22.5C41.75 12.1687 33.3313 3.75 23 3.75ZM29.3 26.8125C29.8438 27.3563 29.8438 28.2562 29.3 28.8C29.0187 29.0812 28.6625 29.2125 28.3062 29.2125C27.95 29.2125 27.5938 29.0812 27.3125 28.8L23 24.4875L18.6875 28.8C18.4062 29.0812 18.05 29.2125 17.6938 29.2125C17.3375 29.2125 16.9813 29.0812 16.7 28.8C16.1563 28.2562 16.1563 27.3563 16.7 26.8125L21.0125 22.5L16.7 18.1875C16.1563 17.6437 16.1563 16.7438 16.7 16.2C17.2438 15.6563 18.1437 15.6563 18.6875 16.2L23 20.5125L27.3125 16.2C27.8563 15.6563 28.7562 15.6563 29.3 16.2C29.8438 16.7438 29.8438 17.6437 29.3 18.1875L24.9875 22.5L29.3 26.8125Z" fill="#E90000"/>
</g>
</g>
</svg>
