<svg width="46" height="45" viewBox="0 0 46 45" fill="none" xmlns="http://www.w3.org/2000/svg">
<g id="vuesax/bold/tick-circle">
<g id="tick-circle">
<path id="Vector" d="M23 3.75C12.6687 3.75 4.25 12.1687 4.25 22.5C4.25 32.8313 12.6687 41.25 23 41.25C33.3313 41.25 41.75 32.8313 41.75 22.5C41.75 12.1687 33.3313 3.75 23 3.75ZM31.9625 18.1875L21.3312 28.8188C21.0687 29.0812 20.7125 29.2313 20.3375 29.2313C19.9625 29.2313 19.6063 29.0812 19.3438 28.8188L14.0375 23.5125C13.4937 22.9688 13.4937 22.0687 14.0375 21.525C14.5812 20.9812 15.4812 20.9812 16.025 21.525L20.3375 25.8375L29.975 16.2C30.5188 15.6563 31.4188 15.6563 31.9625 16.2C32.5063 16.7438 32.5063 17.625 31.9625 18.1875Z" fill="#00C900"/>
</g>
</g>
</svg>
