<svg width="48" height="48" viewBox="0 0 48 48" fill="none" xmlns="http://www.w3.org/2000/svg">
<g id="icon_tiktok" clip-path="url(#clip0_1_6868)">
<path id="Subtract" fill-rule="evenodd" clip-rule="evenodd" d="M24 48C37.2548 48 48 37.2548 48 24C48 10.7452 37.2548 0 24 0C10.7452 0 0 10.7452 0 24C0 37.2548 10.7452 48 24 48ZM25.5561 8.4H30.5282C30.5282 12.3791 33.4604 15.6348 37.2 15.7704V21.1061C34.7777 21.0609 32.483 20.2017 30.6131 18.7548V29.6521C30.6131 35.1235 26.4485 39.6 21.3066 39.6C16.1646 39.6 12 35.1687 12 29.6521C12 24.1809 16.0796 19.7948 21.1366 19.7044V25.04C18.8418 25.1304 16.972 27.1652 16.972 29.6521C16.972 32.1844 18.8843 34.2644 21.2641 34.2644C23.6439 34.2644 25.5561 32.1844 25.5561 29.6521V8.4Z" fill="#F8F8F8"/>
</g>
<defs>
<clipPath id="clip0_1_6868">
<rect width="48" height="48" fill="white"/>
</clipPath>
</defs>
</svg>
