<svg width="19" height="18" viewBox="0 0 19 18" fill="none" xmlns="http://www.w3.org/2000/svg">
<g id="icon_ton">
<circle id="Ellipse 148" cx="9.5" cy="9" r="9" fill="#0098EA"/>
<path id="Vector" d="M14.3118 6.87848L9.95294 13.73C9.89987 13.8127 9.82647 13.8809 9.73957 13.9281C9.65267 13.9753 9.55508 14 9.45588 14C9.35592 14.0002 9.25755 13.9752 9.17006 13.9275C9.08258 13.8797 9.00887 13.8108 8.95588 13.7271L4.68236 6.87558C4.56264 6.68354 4.49949 6.46237 4.5 6.23688C4.50542 5.90398 4.64442 5.5868 4.88648 5.35493C5.12855 5.12307 5.45391 4.99547 5.79118 5.00012H13.2147C13.9235 5.00012 14.5 5.55173 14.5 6.23398C14.5 6.46043 14.4353 6.68397 14.3118 6.87848ZM5.73236 6.64913L8.91177 11.4887V6.1614H6.06471C5.7353 6.1614 5.58824 6.37623 5.73236 6.64913ZM10.0882 11.4887L13.2676 6.64913C13.4147 6.37623 13.2647 6.1614 12.9353 6.1614H10.0882V11.4887Z" fill="white"/>
</g>
</svg>
