<svg width="21" height="19" viewBox="0 0 21 19" fill="none" xmlns="http://www.w3.org/2000/svg">
<g id="Union">
<path d="M0 4.35417C0 1.94979 1.9152 0 4.27778 0H16.7222C18.9538 0 20.786 1.7395 20.9825 3.95833H12.8333C11.3298 3.95833 10.1111 5.19918 10.1111 6.72917V12.2708C10.1111 13.8008 11.3298 15.0417 12.8333 15.0417H20.9825C20.786 17.2605 18.9538 19 16.7222 19H4.27778C1.9152 19 0 17.0502 0 14.6458V4.35417Z" fill="#F8F8F8"/>
<path fill-rule="evenodd" clip-rule="evenodd" d="M12.0556 6.72917C12.0556 6.29194 12.4038 5.9375 12.8333 5.9375H21V13.0625H12.8333C12.4038 13.0625 12.0556 12.7081 12.0556 12.2708V6.72917ZM16.7222 9.5C16.7222 10.3745 16.0258 11.0833 15.1667 11.0833C14.3076 11.0833 13.6111 10.3745 13.6111 9.5C13.6111 8.62555 14.3076 7.91667 15.1667 7.91667C16.0258 7.91667 16.7222 8.62555 16.7222 9.5Z" fill="#F8F8F8"/>
</g>
</svg>
