<svg width="80" height="73" viewBox="0 0 80 73" fill="none" xmlns="http://www.w3.org/2000/svg">
<path d="M0 16.8969C0 7.73734 7.29601 0.30957 16.2963 0.30957H63.7037C72.2049 0.30957 79.1847 6.93624 79.9334 15.3889H48.8889C43.1612 15.3889 38.5185 20.116 38.5185 25.9445V47.0556C38.5185 52.8841 43.1612 57.6112 48.8889 57.6112H79.9334C79.1847 66.0639 72.2049 72.6905 63.7037 72.6905H16.2963C7.29601 72.6905 0 65.2628 0 56.1032V16.8969Z" fill="#50A7EA"/>
<path fill-rule="evenodd" clip-rule="evenodd" d="M45.9259 25.9445C45.9259 24.2789 47.2525 22.9286 48.8889 22.9286H80V50.0715H48.8889C47.2525 50.0715 45.9259 48.7212 45.9259 47.0556V25.9445ZM63.7037 36.5C63.7037 39.8313 61.0506 42.5318 57.7778 42.5318C54.505 42.5318 51.8518 39.8313 51.8518 36.5C51.8518 33.1688 54.505 30.4683 57.7778 30.4683C61.0506 30.4683 63.7037 33.1688 63.7037 36.5Z" fill="#50A7EA"/>
</svg>
