<svg width="48" height="48" viewBox="0 0 48 48" fill="none" xmlns="http://www.w3.org/2000/svg">
<g id="icon_youtube" clip-path="url(#clip0_1_6866)">
<g id="Subtract">
<path d="M20.989 19.9442V27.4797L28.8609 23.7251L20.989 19.9442Z" fill="#F8F8F8"/>
<path fill-rule="evenodd" clip-rule="evenodd" d="M24 48C37.2548 48 48 37.2548 48 24C48 10.7452 37.2548 0 24 0C10.7452 0 0 10.7452 0 24C0 37.2548 10.7452 48 24 48ZM37.12 15.9801C37.9965 16.7918 38.2811 18.6403 38.2811 18.6403C38.2811 18.6403 38.5714 20.8135 38.5714 22.9815V25.0133C38.5714 27.1865 38.2811 29.3545 38.2811 29.3545C38.2811 29.3545 37.9965 31.203 37.12 32.0147C36.1198 32.9773 35.0134 33.0768 34.3878 33.133C34.3192 33.1392 34.2563 33.1448 34.2 33.151C30.1246 33.4181 24 33.4286 24 33.4286C24 33.4286 16.424 33.3657 14.0903 33.1615C13.9768 33.1413 13.8385 33.1258 13.6818 33.1083C12.9422 33.0253 11.7901 32.8961 10.8743 32.0147C10.0035 31.203 9.71886 29.3545 9.71886 29.3545C9.71886 29.3545 9.42857 27.1813 9.42857 25.0133V22.9815C9.42857 20.8135 9.72455 18.6403 9.72455 18.6403C9.72455 18.6403 10.0035 16.7918 10.88 15.9801C11.8802 15.0175 12.9866 14.918 13.6122 14.8618C13.6808 14.8556 13.7437 14.8499 13.8 14.8437C17.8754 14.5714 23.9943 14.5714 23.9943 14.5714H24.0057C24.0057 14.5714 30.1246 14.5714 34.2 14.8437C34.2563 14.8499 34.3192 14.8556 34.3878 14.8618C35.0134 14.918 36.1198 15.0175 37.12 15.9801Z" fill="#F8F8F8"/>
</g>
</g>
<defs>
<clipPath id="clip0_1_6866">
<rect width="48" height="48" fill="white"/>
</clipPath>
</defs>
</svg>
